<svg width="29" height="28" viewBox="0 0 29 28" fill="none" xmlns="http://www.w3.org/2000/svg">
<circle cx="14.5" cy="14" r="10" stroke="#8D8D8D" stroke-width="2"/>
<circle cx="14.5" cy="11" r="3" stroke="#8D8D8D" stroke-width="2"/>
<mask id="path-3-inside-1_3661_247" fill="white">
<path fill-rule="evenodd" clip-rule="evenodd" d="M8.5 23.2211V22C8.5 19.2386 10.7386 17 13.5 17H15.5C18.2614 17 20.5 19.2386 20.5 22V23.2211C18.7744 24.3462 16.7136 25 14.5 25C12.2864 25 10.2256 24.3462 8.5 23.2211Z"/>
</mask>
<path d="M8.5 23.2211H6.5V24.3046L7.40765 24.8964L8.5 23.2211ZM20.5 23.2211L21.5923 24.8964L22.5 24.3046V23.2211H20.5ZM10.5 23.2211V22H6.5V23.2211H10.5ZM10.5 22C10.5 20.3431 11.8431 19 13.5 19V15C9.63401 15 6.5 18.134 6.5 22H10.5ZM13.5 19H15.5V15H13.5V19ZM15.5 19C17.1569 19 18.5 20.3431 18.5 22H22.5C22.5 18.134 19.366 15 15.5 15V19ZM18.5 22V23.2211H22.5V22H18.5ZM19.4077 21.5457C17.9971 22.4654 16.314 23 14.5 23V27C17.1131 27 19.5517 26.2269 21.5923 24.8964L19.4077 21.5457ZM14.5 23C12.686 23 11.0029 22.4654 9.59235 21.5457L7.40765 24.8964C9.44825 26.2269 11.8869 27 14.5 27V23Z" fill="#8D8D8D" mask="url(#path-3-inside-1_3661_247)"/>
<circle cx="14.5" cy="14" r="10" stroke="#8D8D8D" stroke-width="2"/>
</svg>
