<svg width="29" height="28" viewBox="0 0 29 28" fill="none" xmlns="http://www.w3.org/2000/svg">
<path d="M23 4.51545C23 4.37875 22.9276 4.24764 22.7986 4.15097C22.6697 4.05431 22.4948 4 22.3125 4H7.1875C7.00516 4 6.8303 4.05431 6.70136 4.15097C6.57243 4.24764 6.5 4.37875 6.5 4.51545V5.03091H23V4.51545Z" fill="#8D8D8D"/>
<path d="M24.2075 7.29934C24.2075 7.0806 24.1351 6.87083 24.0062 6.71617C23.8772 6.5615 23.7024 6.47461 23.52 6.47461H5.64502C5.46268 6.47461 5.28782 6.5615 5.15888 6.71617C5.02995 6.87083 4.95752 7.0806 4.95752 7.29934V8.12406H24.2075V7.29934Z" fill="#8D8D8D"/>
<mask id="path-3-inside-1_3661_229" fill="white">
<rect x="3.5" y="9.56738" width="22" height="14.4327" rx="1.4"/>
</mask>
<rect x="3.5" y="9.56738" width="22" height="14.4327" rx="1.4" stroke="#8D8D8D" stroke-width="4" mask="url(#path-3-inside-1_3661_229)"/>
<path d="M13.1104 14.0695L16.95 16.4444C17.2028 16.6008 17.2028 16.9684 16.95 17.1248L13.1104 19.4998C12.8439 19.6646 12.5 19.4729 12.5 19.1596L12.5 14.4096C12.5 14.0963 12.8439 13.9046 13.1104 14.0695Z" fill="#8D8D8D"/>
</svg>
