<svg width="29" height="28" viewBox="0 0 29 28" fill="none" xmlns="http://www.w3.org/2000/svg">
<path d="M8.27776 6.31925C8.38 6.42012 8.46112 6.53989 8.51646 6.67173C8.5718 6.80358 8.60029 6.9449 8.60029 7.08762C8.60029 7.23034 8.5718 7.37167 8.51646 7.50351C8.46112 7.63535 8.38 7.75513 8.27776 7.85599C6.62755 9.48593 5.7005 11.6964 5.7005 14.0013C5.7005 16.3062 6.62755 18.5167 8.27776 20.1466C8.37986 20.2476 8.46084 20.3673 8.51607 20.4991C8.5713 20.6309 8.5997 20.7722 8.59965 20.9149C8.5996 21.0575 8.5711 21.1988 8.51577 21.3305C8.46045 21.4623 8.37938 21.582 8.27721 21.6828C8.17503 21.7837 8.05374 21.8637 7.92027 21.9182C7.7868 21.9727 7.64376 22.0008 7.49931 22.0007C7.35486 22.0007 7.21184 21.9725 7.07841 21.9179C6.94498 21.8633 6.82375 21.7832 6.72164 21.6823C2.42612 17.4403 2.42612 10.5613 6.72164 6.31925C6.82378 6.21828 6.94507 6.13817 7.07857 6.08352C7.21208 6.02886 7.35518 6.00073 7.4997 6.00073C7.64422 6.00073 7.78732 6.02886 7.92083 6.08352C8.05433 6.13817 8.17562 6.21828 8.27776 6.31925ZM22.2784 6.31925C26.5739 10.5624 26.5739 17.4403 22.2784 21.6823C22.0709 21.8801 21.7932 21.9896 21.5048 21.9871C21.2165 21.9847 20.9406 21.8704 20.7367 21.6691C20.5328 21.4677 20.4172 21.1953 20.4147 20.9106C20.4122 20.6258 20.523 20.3515 20.7233 20.1466C22.3736 18.5167 23.3006 16.3062 23.3006 14.0013C23.3006 11.6964 22.3736 9.48593 20.7233 7.85599C20.517 7.65235 20.401 7.3761 20.4009 7.08801C20.4008 6.79991 20.5166 6.52358 20.7228 6.31979C20.929 6.11601 21.2087 6.00147 21.5005 6.00137C21.7922 6.00126 22.072 6.11561 22.2784 6.31925ZM11.5406 9.44052C11.7468 9.64418 11.8626 9.92037 11.8626 10.2083C11.8626 10.4963 11.7468 10.7725 11.5406 10.9762C11.1403 11.3715 10.8227 11.8408 10.606 12.3574C10.3894 12.8739 10.2778 13.4276 10.2778 13.9867C10.2778 14.5458 10.3894 15.0994 10.606 15.6159C10.8227 16.1325 11.1403 16.6018 11.5406 16.9971C11.6457 17.0973 11.7295 17.2172 11.7871 17.3497C11.8447 17.4822 11.8751 17.6247 11.8763 17.7689C11.8776 17.9131 11.8498 18.0561 11.7945 18.1896C11.7392 18.323 11.6575 18.4443 11.5543 18.5463C11.451 18.6482 11.3282 18.7289 11.1931 18.7835C11.0579 18.8381 10.9131 18.8656 10.7671 18.8643C10.6211 18.8631 10.4768 18.8331 10.3426 18.7762C10.2084 18.7193 10.0871 18.6365 9.98563 18.5328C8.76475 17.3271 8.07886 15.6918 8.07886 13.9867C8.07886 12.2815 8.76475 10.6462 9.98563 9.44052C10.1919 9.23692 10.4715 9.12254 10.7631 9.12254C11.0547 9.12254 11.3344 9.23692 11.5406 9.44052ZM19.1936 9.44052C20.4145 10.6462 21.1004 12.2815 21.1004 13.9867C21.1004 15.6918 20.4145 17.3271 19.1936 18.5328C19.0915 18.6337 18.9703 18.7138 18.8369 18.7684C18.7034 18.823 18.5604 18.8512 18.416 18.8512C18.2715 18.8513 18.1285 18.8232 17.995 18.7687C17.8615 18.7141 17.7402 18.6342 17.6381 18.5333C17.5359 18.4325 17.4548 18.3128 17.3995 18.181C17.3442 18.0492 17.3157 17.908 17.3156 17.7654C17.3156 17.6227 17.344 17.4814 17.3992 17.3496C17.4544 17.2178 17.5354 17.0981 17.6375 16.9971C18.0379 16.6018 18.3554 16.1325 18.5721 15.6159C18.7888 15.0994 18.9003 14.5458 18.9003 13.9867C18.9003 13.4276 18.7888 12.8739 18.5721 12.3574C18.3554 11.8408 18.0379 11.3715 17.6375 10.9762C17.4313 10.7724 17.3155 10.4961 17.3156 10.208C17.3157 9.91987 17.4317 9.64361 17.6381 9.43997C17.8444 9.23633 18.1242 9.12199 18.416 9.12209C18.7077 9.12219 18.9874 9.23673 19.1936 9.44052ZM14.5891 12.4488C14.8057 12.4488 15.0202 12.491 15.2203 12.5728C15.4205 12.6547 15.6023 12.7747 15.7555 12.926C15.9087 13.0772 16.0302 13.2568 16.1131 13.4545C16.196 13.6521 16.2387 13.864 16.2387 14.0779C16.2387 14.2918 16.196 14.5037 16.1131 14.7013C16.0302 14.8989 15.9087 15.0785 15.7555 15.2298C15.6023 15.3811 15.4205 15.5011 15.2203 15.5829C15.0202 15.6648 14.8057 15.7069 14.5891 15.7069C14.1516 15.7069 13.732 15.5353 13.4226 15.2298C13.1133 14.9243 12.9395 14.5099 12.9395 14.0779C12.9395 13.6458 13.1133 13.2315 13.4226 12.926C13.732 12.6205 14.1516 12.4488 14.5891 12.4488Z" fill="#8D8D8D"/>
</svg>
