<svg width="23" height="16" viewBox="0 0 23 16" fill="none" xmlns="http://www.w3.org/2000/svg">
<path d="M5.27776 0.319252C5.38 0.420116 5.46112 0.539892 5.51646 0.671735C5.5718 0.803577 5.60029 0.9449 5.60029 1.08762C5.60029 1.23034 5.5718 1.37167 5.51646 1.50351C5.46112 1.63535 5.38 1.75513 5.27776 1.85599C3.62755 3.48593 2.7005 5.69643 2.7005 8.00132C2.7005 10.3062 3.62755 12.5167 5.27776 14.1466C5.37986 14.2476 5.46084 14.3673 5.51607 14.4991C5.5713 14.6309 5.5997 14.7722 5.59965 14.9149C5.5996 15.0575 5.5711 15.1988 5.51577 15.3305C5.46045 15.4623 5.37938 15.582 5.27721 15.6828C5.17503 15.7837 5.05374 15.8637 4.92027 15.9182C4.7868 15.9727 4.64376 16.0008 4.49931 16.0007C4.35486 16.0007 4.21184 15.9725 4.07841 15.9179C3.94498 15.8633 3.82375 15.7832 3.72164 15.6823C-0.573882 11.4403 -0.573882 4.56131 3.72164 0.319252C3.82378 0.218276 3.94507 0.138171 4.07857 0.0835173C4.21208 0.0288634 4.35518 0.000732422 4.4997 0.000732422C4.64422 0.000732422 4.78732 0.0288634 4.92083 0.0835173C5.05433 0.138171 5.17562 0.218276 5.27776 0.319252ZM19.2784 0.319252C23.5739 4.56239 23.5739 11.4403 19.2784 15.6823C19.0709 15.8801 18.7932 15.9896 18.5048 15.9871C18.2165 15.9847 17.9406 15.8704 17.7367 15.6691C17.5328 15.4677 17.4172 15.1953 17.4147 14.9106C17.4122 14.6258 17.523 14.3515 17.7233 14.1466C19.3736 12.5167 20.3006 10.3062 20.3006 8.00132C20.3006 5.69643 19.3736 3.48593 17.7233 1.85599C17.517 1.65235 17.401 1.3761 17.4009 1.08801C17.4008 0.799913 17.5166 0.523579 17.7228 0.319795C17.929 0.116011 18.2087 0.00146864 18.5005 0.0013668C18.7922 0.00126497 19.072 0.115612 19.2784 0.319252ZM8.54064 3.44052C8.74681 3.64418 8.86262 3.92037 8.86262 4.20834C8.86262 4.49632 8.74681 4.77251 8.54064 4.97617C8.14029 5.3715 7.82271 5.84083 7.60604 6.35738C7.38937 6.87392 7.27785 7.42755 7.27785 7.98666C7.27785 8.54577 7.38937 9.0994 7.60604 9.61594C7.82271 10.1325 8.14029 10.6018 8.54064 10.9971C8.64568 11.0973 8.72945 11.2172 8.78709 11.3497C8.84473 11.4822 8.87506 11.6247 8.87633 11.7689C8.8776 11.9131 8.84978 12.0561 8.79448 12.1896C8.73919 12.323 8.65753 12.4443 8.55427 12.5463C8.45102 12.6482 8.32823 12.7289 8.19308 12.7835C8.05792 12.8381 7.91311 12.8656 7.76709 12.8643C7.62107 12.8631 7.47677 12.8331 7.34259 12.7762C7.20842 12.7193 7.08708 12.6365 6.98563 12.5328C5.76475 11.3271 5.07886 9.69178 5.07886 7.98666C5.07886 6.28153 5.76475 4.64624 6.98563 3.44052C7.19186 3.23692 7.47153 3.12254 7.76313 3.12254C8.05474 3.12254 8.33441 3.23692 8.54064 3.44052ZM16.1936 3.44052C17.4145 4.64624 18.1004 6.28153 18.1004 7.98666C18.1004 9.69178 17.4145 11.3271 16.1936 12.5328C16.0915 12.6337 15.9703 12.7138 15.8369 12.7684C15.7034 12.823 15.5604 12.8512 15.416 12.8512C15.2715 12.8513 15.1285 12.8232 14.995 12.7687C14.8615 12.7141 14.7402 12.6342 14.6381 12.5333C14.5359 12.4325 14.4548 12.3128 14.3995 12.181C14.3442 12.0492 14.3157 11.908 14.3156 11.7654C14.3156 11.6227 14.344 11.4814 14.3992 11.3496C14.4544 11.2178 14.5354 11.0981 14.6375 10.9971C15.0379 10.6018 15.3554 10.1325 15.5721 9.61594C15.7888 9.0994 15.9003 8.54577 15.9003 7.98666C15.9003 7.42755 15.7888 6.87392 15.5721 6.35738C15.3554 5.84083 15.0379 5.3715 14.6375 4.97617C14.4313 4.77239 14.3155 4.49605 14.3156 4.20796C14.3157 3.91987 14.4317 3.64361 14.6381 3.43997C14.8444 3.23633 15.1242 3.12199 15.416 3.12209C15.7077 3.12219 15.9874 3.23673 16.1936 3.44052ZM11.5891 6.44883C11.8057 6.44883 12.0202 6.49097 12.2203 6.57284C12.4205 6.65471 12.6023 6.7747 12.7555 6.92597C12.9087 7.07724 13.0302 7.25683 13.1131 7.45447C13.196 7.65212 13.2387 7.86396 13.2387 8.07789C13.2387 8.29182 13.196 8.50365 13.1131 8.7013C13.0302 8.89894 12.9087 9.07853 12.7555 9.2298C12.6023 9.38107 12.4205 9.50107 12.2203 9.58293C12.0202 9.6648 11.8057 9.70694 11.5891 9.70694C11.1516 9.70694 10.732 9.53531 10.4226 9.2298C10.1133 8.92429 9.93949 8.50994 9.93949 8.07789C9.93949 7.64583 10.1133 7.23148 10.4226 6.92597C10.732 6.62046 11.1516 6.44883 11.5891 6.44883Z" fill="#EAEAEA"/>
</svg>
