<svg width="23" height="22" viewBox="0 0 23 22" fill="none" xmlns="http://www.w3.org/2000/svg">
<path d="M20.5 5.99927H19C19.1613 5.46443 19.509 4.40784 19.5 3.84927C19.5 1.72627 17.473 -0.000732422 15.35 -0.000732422C13.5658 -0.000732422 12.3745 1.62947 11.6056 3.39277C10.8477 1.72627 9.5959 -0.000732422 7.65 -0.000732422C5.527 -0.000732422 3.5 1.87627 3.5 3.99927C3.5 4.65487 3.857 5.54717 4 5.99927H2.5C1.2867 5.99927 0.5 6.48597 0.5 7.69927V9.89927C0.5 11.1126 1.4867 12.0993 2.7 12.0993V19.7993C2.7 21.0126 3.6867 21.9993 4.9 21.9993H18.1C19.3133 21.9993 20.5 21.2126 20.5 19.9993V11.9993C21.7133 11.9993 22.5 11.1126 22.5 9.89927V7.69927C22.5 6.48597 21.7133 5.99927 20.5 5.99927ZM15.5 1.99927C16.4097 1.99927 17.5 3.08957 17.5 3.99927C17.5 5.64927 16.4114 5.99927 16 5.99927H12.5C13.0621 4.26567 14.7025 1.99927 15.5 1.99927ZM5.5 3.99927C5.5 3.08957 6.7403 1.99927 7.65 1.99927C8.6268 1.99927 9.9676 4.37677 10.5 5.99927H7C6.5886 5.99927 5.5 5.64927 5.5 3.99927ZM2.5 7.99927H10.5V9.99927H2.5V7.99927ZM4.5 19.9993V11.9993H10.5V19.9993H4.5ZM18.5 19.9993H12.5V11.9993H18.5V19.9993ZM12.5 9.99927V7.99927H20.5V9.99927H12.5Z" fill="#8D8D8D"/>
</svg>
