<svg width="18" height="18" viewBox="0 0 18 18" fill="none" xmlns="http://www.w3.org/2000/svg">
<path fill-rule="evenodd" clip-rule="evenodd" d="M11.4143 4.34313C13.3669 6.29575 13.3669 9.46157 11.4143 11.4142C9.46166 13.3668 6.29583 13.3668 4.34321 11.4142C2.39059 9.46157 2.39059 6.29575 4.34321 4.34313C6.29583 2.39051 9.46166 2.39051 11.4143 4.34313ZM13.484 12.0732C15.5412 9.33123 15.3227 5.42311 12.8285 2.92891C10.0948 0.195245 5.66267 0.195245 2.929 2.92891C0.195325 5.66258 0.195325 10.0947 2.929 12.8284C5.42319 15.3226 9.33131 15.5411 12.0732 13.4839C12.0886 13.5015 12.1046 13.5187 12.1214 13.5355L15.6569 17.0711C16.0474 17.4616 16.6806 17.4616 17.0711 17.0711C17.4617 16.6805 17.4617 16.0474 17.0711 15.6568L13.5356 12.1213C13.5188 12.1045 13.5016 12.0885 13.484 12.0732Z" fill="#EAEAEA"/>
</svg>
